#!OML:ASF H:\LiuWeirdWalks\Patient Classification 1\Patient 1\Session 1\male.ASF
:FULLY-SPECIFIED
:DEGREES
470
root 1.57567 16.1372 30.0192 -1.87519 -3.42398 8.15093
lowerback 16.5632 4.34852 -5.00446
upperback 0.902429 4.51538 -3.38228
thorax -8.42586 2.29132 -1.88891
lowerneck -29.4875 -1.12687 0.945504
upperneck 21.8242 -1.45219 -1.8491
head 12.0054 -0.827329 -1.12432
rclavicle 6.35614e-014 -9.34288e-015
rhumerus -38.1772 -4.24601 -79.3626
rradius 41.1667
rwrist -6.30195
rhand -21.6387 -1.316
rfingers 7.12502
rthumb 4.75764 -31.2426
lclavicle 6.35614e-014 -9.34288e-015
lhumerus -36.6499 7.2031 69.4839
lradius 33.6965
lwrist 4.7789
lhand -21.89 -13.7202
lfingers 7.12502
lthumb 4.51494 16.2116
rfemur -10.4207 -13.9058 7.98591
rtibia 98.7706
rfoot 21.7743 -9.00626
rtoes 8.45443
lfemur -39.1452 1.56722 -35.2762
ltibia 51.9109
lfoot -5.49724 9.5593
ltoes -7.17018
471
root 1.58979 16.2016 30.1281 -2.1022 -3.58548 7.99678
lowerback 16.4565 4.26556 -4.5783
upperback 1.11314 4.50755 -3.34325
thorax -8.1057 2.27215 -2.05852
lowerneck -29.5318 -1.09452 0.985537
upperneck 22.0267 -1.50679 -1.56589
head 12.0937 -0.806337 -1.03611
rclavicle 4.3686e-014 -2.03754e-014
rhumerus -37.9718 -2.82687 -79.9287
rradius 41.8604
rwrist -5.45829
rhand -21.1056 -1.06825
rfingers 7.12502
rthumb 5.27239 -30.9827
lclavicle 4.3686e-014 -2.03754e-014
lhumerus -36.2327 5.84213 70.4343
lradius 34.0537
lwrist 4.35157
lhand -21.5042 -13.8199
lfingers 7.12502
lthumb 4.88747 16.1038
rfemur -11.2632 -14.4081 8.47622
rtibia 98.4196
rfoot 19.2892 -10.8659
rtoes 8.32998
lfemur -38.1816 2.00359 -35.0793
ltibia 51.4441
lfoot -5.85475 9.10368
ltoes -7.32395
472
root 1.60486 16.272 30.2364 -2.29771 -3.7711 7.64996
lowerback 16.2921 4.15991 -3.97
upperback 1.30023 4.50853 -3.24834
thorax -7.77079 2.25434 -2.26895
lowerneck -29.4903 -1.06508 1.02767
upperneck 22.1407 -1.55171 -1.33429
head 12.1321 -0.788413 -0.963864
rclavicle -9.13167e-016 -1.61761e-014
rhumerus -37.8656 -1.57275 -80.3916
rradius 42.6661
rwrist -4.58264
rhand -20.7463 -0.929359
rfingers 7.12502
rthumb 5.61931 -30.8349
lclavicle -9.13167e-016 -1.61761e-014
lhumerus -35.9328 4.39849 71.3801
lradius 34.6157
lwrist 3.72056
lhand -21.2874 -13.9629
lfingers 7.12502
lthumb 5.09688 15.9558
rfemur -12.0294 -14.8381 9.18191
rtibia 97.8303
rfoot 16.999 -12.7524
rtoes 8.14903
lfemur -37.2184 2.48533 -34.6696
ltibia 50.9352
lfoot -6.20462 8.59912
ltoes -7.45307
473
root 1.62122 16.3463 30.3426 -2.50262 -3.99768 7.16489
lowerback 16.1312 4.04444 -3.25625
upperback 1.47401 4.51522 -3.09324
thorax -7.45019 2.2392 -2.4773
lowerneck -29.371 -1.01301 1.10456
upperneck 22.1683 -1.54706 -1.21425
head 12.1219 -0.761976 -0.928922
rclavicle -7.70213e-015 -1.02188e-014
rhumerus -37.8231 -0.483213 -80.7336
rradius 43.5295
rwrist -3.8395
rhand -20.5382 -0.890953
rfingers 7.12502
rthumb 5.82023 -30.791
lclavicle -7.70213e-015 -1.02188e-014
lhumerus -35.7316 3.00111 72.3066
lradius 35.3353
lwrist 3.00518
lhand -21.237 -14.0358
lfingers 7.12502
lthumb 5.14556 15.8817
rfemur -12.6961 -15.1539 10.0165
rtibia 97.0343
rfoot 14.8614 -14.4359
rtoes 7.6609
lfemur -36.2167 3.0032 -34.0979
ltibia 50.3786
lfoot -6.53778 8.07446
ltoes -7.55368
474
root 1.63825 16.423 30.4464 -2.73841 -4.25679 6.59609
lowerback 16.013 3.92885 -2.50387
upperback 1.63188 4.52479 -2.88612
thorax -7.1725 2.22696 -2.65817
lowerneck -29.2048 -0.943621 1.20454
upperneck 22.1513 -1.49686 -1.19869
head 12.0853 -0.72867 -0.928374
rclavicle -2.44288e-014 -5.66536e-015
rhumerus -37.8502 0.412891 -80.9464
rradius 44.4291
rwrist -3.33146
rhand -20.4703 -0.91523
rfingers 7.12502
rthumb 5.88574 -30.8135
lclavicle -2.44288e-014 -5.66536e-015
lhumerus -35.6057 1.7349 73.1888
lradius 36.119
lwrist 2.26473
lhand -21.3091 -14.0944
lfingers 7.12502
lthumb 5.07593 15.8248
rfemur -13.2449 -15.3507 10.9029
rtibia 96.0669
rfoot 12.837 -15.7217
rtoes 6.93218
lfemur -35.1526 3.54087 -33.4216
ltibia 49.7676
lfoot -6.84735 7.55408
ltoes -7.647
475
root 1.6556 16.5018 30.5489 -3.02284 -4.53013 6.04916
lowerback 15.9452 3.8191 -1.82556
upperback 1.78284 4.52423 -2.6525
thorax -6.93897 2.21355 -2.7732
lowerneck -29.002 -0.850594 1.3394
upperneck 22.1222 -1.40013 -1.27831
head 12.0368 -0.68532 -0.960884
rclavicle -7.36249e-014 2.22639e-014
rhumerus -37.9285 1.11987 -81.0374
rradius 45.332
rwrist -3.10167
rhand -20.5036 -0.979674
rfingers 7.12502
rthumb 5.85359 -30.8788
lclavicle -7.36249e-014 2.22639e-014
lhumerus -35.5297 0.632494 74.0184
lradius 36.9101
lwrist 1.60726
lhand -21.443 -14.1725
lfingers 7.12502
lthumb 4.94664 15.7497
rfemur -13.6552 -15.4298 11.6939
rtibia 94.954
rfoot 10.8794 -16.4579
rtoes 5.8368
lfemur -33.9912 4.071 -32.7587
ltibia 49.0828
lfoot -7.13233 7.06974
ltoes -7.70109
